<svg height="682.667" viewBox="0 0 512 512" width="682.667" xmlns="http://www.w3.org/2000/svg"><path d="m39.7 1.6c-9.9 2.4-16.7 6.2-24.3 13.8-7.7 7.8-11.4 14.4-13.9 24.8-2.2 9.5-2.2 422.1 0 431.6 2.5 10.4 6.2 17 13.9 24.8 7.8 7.7 14.4 11.4 24.8 13.9 9.5 2.2 422.1 2.2 431.6 0 10.4-2.5 17-6.2 24.8-13.9 7.7-7.8 11.4-14.4 13.9-24.8 2.2-9.5 2.2-422.1 0-431.6-2.5-10.4-6.2-17-13.9-24.8-7.8-7.7-14.4-11.4-24.8-13.9-9.2-2.2-423.1-2.1-432.1.1zm215.3 73.3c90.9 11 146.5 45.9 170.9 107.4 12.8 32.3 16.2 76 8.6 113.2-13.5 66.9-59.5 112.6-134 133-36.8 10.1-62.9 11.8-160.2 10.9l-66.3-.7v-365.8l85.8.4c55.5.3 89 .9 95.2 1.6z"/><path d="m148 256.5v118.5h44.4c45.6 0 58.1-.7 74.6-4 59.8-12.1 93-53.9 93-117 0-54.3-26.6-92.4-75-107.8-22.7-7.2-33.6-8.2-90.2-8.2h-46.8z"/></svg>